<svg xmlns="http://www.w3.org/2000/svg" viewBox="0 0 500 500"><g id="freepik--background-simple--inject-5"><path d="M457,228.18s-6-99.13-85-147.31C335.07,58.34,289.58,44.13,244.61,44,200,43.88,153.08,59.64,131.05,97.76c-14.18,24.52-16.33,51.94-23.56,78.37C90.25,239.08,0,278.06,23,351.57c6.79,21.68,24.08,39.56,44.4,52,46,28.19,105.21,36.56,159.24,38.4,43.21,1.47,89.82-4.09,129.46-20.61,38.46-16,67.69-46.13,84.68-81.54C458.29,303.23,459.34,267.31,457,228.18Z" style="fill:#E94D59"></path><path d="M457,228.18s-6-99.13-85-147.31C335.07,58.34,289.58,44.13,244.61,44,200,43.88,153.08,59.64,131.05,97.76c-14.18,24.52-16.33,51.94-23.56,78.37C90.25,239.08,0,278.06,23,351.57c6.79,21.68,24.08,39.56,44.4,52,46,28.19,105.21,36.56,159.24,38.4,43.21,1.47,89.82-4.09,129.46-20.61,38.46-16,67.69-46.13,84.68-81.54C458.29,303.23,459.34,267.31,457,228.18Z" style="fill:#fff;opacity:0.7000000000000001"></path></g><g id="freepik--Clouds--inject-5"><path d="M448,89.38c-1.48-7.46-9.15-10.32-14.84-12.82-7.13-3.12-11.13-5.94-14.78-11a67.94,67.94,0,0,1-5.22-8.81c-5.91-11.46-15.94-19.87-27.08-22.71-9-2.3-19.54-.43-25.36,8-4.87,7-7,18.59-14.63,19.82-3.69.6-7.22-1.73-10.46-3.9-4.58-3-9.35-6-14.55-7s-10.93-.08-14.91,4c-5.87,6-7.72,18-15.37,19.74-6.56,1.47-12.8-6.28-19.31-4.55-5.39,1.43-8,8.4-11.56,13.34a22.86,22.86,0,0,1-6.3,5.94Z" style="fill:none;stroke:#263238;stroke-linecap:round;stroke-linejoin:round"></path><path d="M441.5,122.71c-.58-2.95-3.61-4.08-5.86-5.07a12.66,12.66,0,0,1-5.85-4.33,28.11,28.11,0,0,1-2.06-3.48,17.22,17.22,0,0,0-10.7-9c-3.56-.91-7.73-.17-10,3.15-1.92,2.78-2.77,7.35-5.78,7.84-1.46.23-2.85-.69-4.14-1.55a17.13,17.13,0,0,0-5.75-2.79,6.36,6.36,0,0,0-5.89,1.58c-2.32,2.38-3.06,7.13-6.08,7.81-2.59.58-5.06-2.49-7.63-1.8-2.13.56-3.16,3.32-4.57,5.27a8.94,8.94,0,0,1-2.49,2.35Z" style="fill:none;stroke:#263238;stroke-linecap:round;stroke-linejoin:round"></path><path d="M181.77,117.88c-.58-2.95-3.62-4.07-5.87-5.06a12.65,12.65,0,0,1-5.84-4.34A26.25,26.25,0,0,1,168,105a17.24,17.24,0,0,0-10.71-9c-3.56-.91-7.72-.17-10,3.15-1.93,2.78-2.77,7.35-5.79,7.84-1.45.24-2.85-.69-4.13-1.54a17,17,0,0,0-5.75-2.79,6.31,6.31,0,0,0-5.89,1.58c-2.33,2.37-3.06,7.12-6.08,7.8-2.59.58-5.06-2.48-7.64-1.8-2.12.57-3.15,3.32-4.56,5.28a9.22,9.22,0,0,1-2.5,2.34Z" style="fill:none;stroke:#263238;stroke-linecap:round;stroke-linejoin:round"></path><path d="M160.56,256.14c-1-5-6.12-6.91-9.93-8.58-4.78-2.09-7.45-4-9.9-7.34a46.29,46.29,0,0,1-3.49-5.9c-4-7.67-10.67-13.3-18.12-15.2-6-1.54-13.08-.28-17,5.34-3.26,4.7-4.68,12.44-9.79,13.26-2.47.4-4.83-1.16-7-2.6-3.07-2.05-6.26-4-9.74-4.73a10.71,10.71,0,0,0-10,2.68c-3.93,4-5.17,12.06-10.28,13.21-4.39,1-8.58-4.21-12.93-3.05-3.61,1-5.34,5.63-7.74,8.93a15.26,15.26,0,0,1-4.21,4Z" style="fill:none;stroke:#263238;stroke-linecap:round;stroke-linejoin:round"></path><path d="M169.65,286.88c-.4-2-2.42-2.73-3.93-3.39a8.34,8.34,0,0,1-3.91-2.9,17.08,17.08,0,0,1-1.38-2.33,11.56,11.56,0,0,0-7.17-6,6.14,6.14,0,0,0-6.71,2.11c-1.29,1.86-1.85,4.92-3.87,5.25a4.15,4.15,0,0,1-2.77-1,11.38,11.38,0,0,0-3.84-1.86,4.24,4.24,0,0,0-3.95,1.05c-1.55,1.59-2,4.77-4.07,5.23-1.73.38-3.38-1.67-5.11-1.21-1.42.38-2.11,2.23-3,3.53a5.91,5.91,0,0,1-1.67,1.57Z" style="fill:none;stroke:#263238;stroke-linecap:round;stroke-linejoin:round"></path></g><g id="freepik--Character--inject-5"><path d="M166.34,372.13S200.42,376,205.17,376s14.23.43,16.39-.43,9.06-6,9.06-6l11.65-1.73a36.6,36.6,0,0,1,5.61-2.58c1.72-.44,12.08.86,12.08.86l18.12,1.72s15.1-12.08,17.25-14.66-3-33.66-3-35.81,4.32-15.53,5.18-19S299.22,288,299.22,288l-38.4,4.75s-9.06,15.1-10.79,19a17.27,17.27,0,0,0-1.72,8.2,79.44,79.44,0,0,1-.86,9.06c-.43,3-4.75,6.47-6.47,7.33s-10.36,4.31-10.36,4.31-1.72,7.34-1.72,9.5a18.06,18.06,0,0,0,.86,4.74s-7.34,3.88-9.49,5.18-9.93,3.45-15.53,4.31-18.56,1.73-23.3,3S166.34,372.13,166.34,372.13Z" style="fill:#263238"></path><path d="M211.31,127a26.28,26.28,0,0,0-5.92,10.32c-1.72,6.11,1.91,8.78,4.77,11.07s2.49,3.63,1,6.11a3.64,3.64,0,0,0,1.72,5.35c1.52.57,3.82.38,3,3.44s-1.33,4.77.57,5.35,5.54,1.71,4.59,4-.38,5.34.95,5.53,3.06-1.33,3.06.77-2.68,3.82.19,5.54,4.58,1.33,4.39,2.29-1.34,2.1-.76,3.63,2.67,1.33,2.86,2.29-1,1.72-.57,3.63,1.14,2.1,3.05,2.48,1.91.38,1.91,1.91-.38,1.72,1.72,1.91,4.2-.38,6.88-2.48,5.54-12.42,6.49-16.62,2.87-10.12.19-17.57-14.89-31.13-18.71-35.52a19.71,19.71,0,0,0-13.75-6.3C215.13,124.12,211.31,127,211.31,127Z" style="fill:#263238;stroke:#263238;stroke-miterlimit:10"></path><path d="M239.69,225.25s.32,1.29-2.09,2.74-3.22.64-3.38,2.73-.16,2.74-.48,3.22-4.35,2.58-6.12,3.22a11.33,11.33,0,0,0-3.22,1.93l-.32,6.44a31.71,31.71,0,0,0,7.73-1,47,47,0,0,1,6.76-1.45s1.6,1.13,3.37-6.27S242.11,223.48,239.69,225.25Z" style="fill:gray;stroke:#263238;stroke-linecap:round;stroke-linejoin:round"></path><path d="M232,240.54c.2-2.85-.95-4-1.82-4.51a27.33,27.33,0,0,1-2.53,1.13,11.33,11.33,0,0,0-3.22,1.93l-.32,6.44a34.13,34.13,0,0,0,7-.77A14.88,14.88,0,0,0,232,240.54Z" style="fill:#a8a8a8;stroke:#263238;stroke-linejoin:round"></path><path d="M237.85,217.12s2.1,11.65-1.14,17.19-1.53,12.41.19,14.7,3.82,1.91,5,.38,4-9.54,3.44-20.43S239,213.68,237.85,217.12Z" style="fill:gray;stroke:#263238;stroke-linecap:round;stroke-linejoin:round"></path><path d="M245.87,176.83s-10.31,27.88-10.12,35.33,6.88,14.32,7.26,15.66-.38,11.26-1.53,14.51-3.44,9.36-3.44,9.36A33.31,33.31,0,0,0,253.89,257a48.37,48.37,0,0,0,16.05-2.1l3.81-2.48s-5.53-14.13-9-25.78-5-36.86-4.58-45.64.76-11.84-2.49-12S247.4,174.15,245.87,176.83Z" style="fill:#E94D59;stroke:#263238;stroke-miterlimit:10"></path><path d="M240.23,252.51s-20.84.89-35.26,6.21-21.73,7.76-21.95,15.52,11.09,36.15,11.09,36.15,12,32.82,12.41,34.82a7.42,7.42,0,0,1-.22,4.66c-.44.66,1.56,5.54,6.21,5.54s8-3.55,8.65-8.43-2.44-8.87-4-16.85-4.44-25.95-4.44-32.38-2.21-14.64-2.21-14.64,17.07,5.77,26.39,8.65,36.81,2.22,41.91,1.33,4.66-7.54.23-17.3-18.41-16.41-23.29-18.62S240.23,252.51,240.23,252.51Z" style="fill:#a8a8a8;stroke:#263238;stroke-linecap:round;stroke-linejoin:round"></path><path d="M255.76,257.17c-4.88-2.22-15.53-4.66-15.53-4.66s-20.84.89-35.26,6.21-21.73,7.76-21.95,15.52,11.09,36.15,11.09,36.15,6.17,16.92,9.81,27.2a23.77,23.77,0,0,0,13.3-7.25,1.6,1.6,0,0,1-.05-.21c-1.53-7.85-4.44-25.95-4.44-32.38s-2.21-14.64-2.21-14.64,17.07,5.77,26.39,8.65,36.81,2.22,41.91,1.33,4.66-7.54.23-17.3S260.64,259.38,255.76,257.17Z" style="fill:#263238;stroke:#263238;stroke-miterlimit:10"></path><path d="M207,350.2s-.6-2-1.61-.4-1,4.23-1.82,5-2.62,4.44-7.06,6.66-8.47,3.43-8.88,5,2.43,3,6.86,3.23,13.32.4,17.15-.6,6.06-3.43,10.29-4.85,7.06-1.61,7.87-3.43-2.82-11.29-4.44-13.11-2.42-4.44-4-4.44-2,2-2.22,3.63-.41,3.84-4.44,4.84S207,350.2,207,350.2Z" style="fill:#fff;stroke:#263238;stroke-linejoin:round"></path><path d="M206.76,367.55c-6.36,1.47-15.76-.36-19.12-1.11a.47.47,0,0,0,0,.1c-.4,1.62,2.43,3,6.86,3.23s13.32.4,17.15-.6,6.06-3.43,10.29-4.85,7.06-1.61,7.87-3.43c.27-.6,0-2.05-.43-3.78-1.08.43-2.43,1-4,1.77C221.09,360.89,214.63,365.74,206.76,367.55Z" style="fill:#E94D59;stroke:#263238;stroke-miterlimit:10"></path><path d="M246.67,252.73s-18.19,4.66-29.06,7.32-18.18,4.88-18.85,12.64-8.2,61.87-9.53,65.64-4,14.42-4,17.08a6.23,6.23,0,0,0,6,6.21c4.22.44,6.43-1.55,7.1-3.55s2.66-7.54,5.1-15.52,12-22,14.42-33.49a82.16,82.16,0,0,0,1.33-22.4,131.63,131.63,0,0,1,18,4.22c9.09,2.88,34.37,3.54,48.57,2.43s18.18-9.09,18.41-15.52-6.21-17.52-10-21.29-10.65-4.66-23.29-4.88A206.91,206.91,0,0,0,246.67,252.73Z" style="fill:#a8a8a8;stroke:#263238;stroke-linecap:round;stroke-linejoin:round"></path><path d="M304.11,277.79c.22-6.43-6.21-17.52-10-21.29s-10.65-4.66-23.29-4.88a206.91,206.91,0,0,0-24.17,1.11s-18.19,4.66-29.06,7.32-18.18,4.88-18.85,12.64-8.2,61.87-9.53,65.64c-.27.76-.59,1.79-.93,3a30.54,30.54,0,0,0,14.27,4c.27-.88.56-1.8.85-2.75,2.44-8,12-22,14.42-33.49a82.16,82.16,0,0,0,1.33-22.4,131.63,131.63,0,0,1,18,4.22c9.09,2.88,34.37,3.54,48.57,2.43S303.88,284.22,304.11,277.79Z" style="fill:#263238;stroke:#263238;stroke-miterlimit:10"></path><path d="M185,351.42s-.47-.69-2.34,1.39a34.33,34.33,0,0,1-11.71,8.29c-5.63,2.3-11.72,3-13.36,4.83s-.46,4.38,0,5.07,16.4,2.3,24.36,2.3,17.57-.23,19.21-.92,1.87-5.07,1.64-7.83-1.4-4.38-1.4-5.76.7-3.68,0-4.6-3.75,1.84-5.39,3-7.5.92-8.67-.23S185.89,351.42,185,351.42Z" style="fill:#fff;stroke:#263238;stroke-linejoin:round"></path><path d="M183.54,370.31c-9.67,0-21.9-1.26-26.83-1.82a5.63,5.63,0,0,0,.83,2.51c.47.69,16.4,2.3,24.36,2.3s17.57-.23,19.21-.92c.89-.38,1.37-1.84,1.58-3.54A132.48,132.48,0,0,1,183.54,370.31Z" style="fill:#E94D59;stroke:#263238;stroke-miterlimit:10"></path><path d="M217.61,132.9s-4,5.73-3.63,10.13,1.91,5.53,3.06,6.87a7.69,7.69,0,0,1,1.91,6.68c-.58,3.25-1.53,3.82-1,5.16s4.39,1.72,4.39,1.72a94.1,94.1,0,0,0,6.69,6.87c2.1,1.72,4,2.68,6.11,1.34a39.54,39.54,0,0,0,4.77-3.44c.58-.57,5,5.73,5.73,9.74s-2.29,8.41-.57,9,4.58-4.39,6.49-9.36,3.82-5.92,3.82-5.92-10.88-22.34-17.95-31.7-14.13-10.5-16.61-9.74A5.14,5.14,0,0,0,217.61,132.9Z" style="fill:#a8a8a8;stroke:#263238;stroke-linecap:round;stroke-linejoin:round"></path><path d="M227.73,163.08s3.63-1,4-3.82" style="fill:none;stroke:#263238;stroke-linecap:round;stroke-linejoin:round"></path><path d="M218.76,149.9s2.48,4,4.39,4.39,5.15-.76,5.73-3.43-1.15-5.54-1.15-5.54S222,146.46,218.76,149.9Z" style="fill:none;stroke:#263238;stroke-linecap:round;stroke-linejoin:round"></path><path d="M218.76,149.9l-3.06,2.29a4.46,4.46,0,0,0,2.87,2.68" style="fill:none;stroke:#263238;stroke-linecap:round;stroke-linejoin:round"></path><line x1="227.73" y1="145.32" x2="238.04" y2="141.31" style="fill:none;stroke:#263238;stroke-linecap:round;stroke-linejoin:round"></line><path d="M225.19,151.24c.49.95.6,1.87.24,2.06s-1.05-.43-1.54-1.38-.61-1.88-.25-2.06S224.69,150.29,225.19,151.24Z" style="fill:#263238"></path><path d="M219.14,147.23a4.47,4.47,0,0,1,4.39-2.49" style="fill:none;stroke:#263238;stroke-linecap:round;stroke-linejoin:round"></path><path d="M217.61,131.38a2.54,2.54,0,0,0,1.91,3.05c2.48.77,5.16-.19,4.77,2.68s-2.1,4.2,1.34,4.77,4.78,0,4.78,3.82-2.49,5.16,1.52,6.11,6.11.38,5.54,4.58-2.86,5.73.19,6.88,5.35-.57,5.35,2.67,0,5.16,1.91,5.54,3.44-2.1,3.82.57.57,4,2.1,4.2,1.91-1.52,4-.95,10.31-3.44,12.79-6.11,6.69-2.1,9.93,2.29,9.93,18.71,10.32,21.58.95,3.44,3.24.19,4.2-6.49,2.29-9.74-3.24-2.67-1.91-6.3,4-5.16,1.34-8.4-3.44-2.49-2.86-6.88,1.52-5-1.34-6.68-3.82-1.91-3.82-4.78,1.34-4.77-1.34-6.3-3.43-1.14-3.43-3.63.57-3.43-1.34-4.77-3.63-2.29-3.63-4.77,0-2.68-1.72-4a7.38,7.38,0,0,1-3.05-4.77c-.19-1.72-1.15-3.44-2.49-3.82s-2.29.77-3.24-1.53-1.53-3.43-3.25-3.62a7.18,7.18,0,0,1-4.77-2.68c-1.15-1.53-1.91-2.29-3.44-1.72s-5.16.77-6.68-.57-4-2.1-5.92-.57A5.73,5.73,0,0,1,235,109c-1.72-.57-3.44-.57-4.58.58s-1,1.91-3.25,1.33-4.39-.57-5.54,1.15a8.61,8.61,0,0,1-3.63,3.06c-1.14.57-3.82,1.14-4.2,3.24s-.19,3.06-1.14,3.82-2.49,2.67-2.49,4,2.29,3.82,4.59,4.2" style="fill:#263238;stroke:#263238;stroke-miterlimit:10"></path><path d="M253.7,177s-.95,26.16-1.72,39.34,3.25,17.95,5.73,21.19,25.78,34,27.12,37.24,2.67,9,3.25,9.55,6.3-.19,10.5-1.34,6.68-5.34,6.68-5.34,1.15-5.16-1.71-13.37-6.5-13.56-6.88-19.29-3.25-25.4-4.2-34.56a173.22,173.22,0,0,0-5.54-26.55c-1.72-5.92-3.44-10.12-6.3-12.79a28.75,28.75,0,0,0-6.49-4.39Z" style="fill:gray;stroke:#263238;stroke-linecap:round;stroke-linejoin:round"></path><path d="M291.13,264.48l-3.05,19.86-5.54-11.46S289.41,264.67,291.13,264.48Z" style="fill:#575757;stroke:#263238;stroke-linecap:round;stroke-linejoin:round"></path><path d="M257.14,236.79s17.76,15.47,25.21,20.82,8.78,6.87,8.78,6.87S281,279.57,280.44,279.57s-4-8.21-7.83-14.52S257.52,239.85,257.14,236.79Z" style="fill:gray;stroke:#263238;stroke-linecap:round;stroke-linejoin:round"></path><polygon points="272.42 160.79 251.6 173.77 254.28 180.84 276.62 166.13 272.42 160.79" style="fill:gray;stroke:#263238;stroke-linecap:round;stroke-linejoin:round"></polygon><polygon points="194.63 257.76 216.84 265.64 249.67 252.61 228.87 246.38 194.63 257.76" style="fill:#fff;stroke:#263238;stroke-linejoin:round"></polygon><polygon points="226.96 257.49 224.08 256.57 220.63 257.96 223.65 258.94 226.96 257.49" style="fill:#fff;stroke:#263238;stroke-linejoin:round;stroke-width:0.5px"></polygon><polygon points="220.38 254.33 225.75 252.33 224.15 251.87 218.78 253.81 220.38 254.33" style="fill:#fff;stroke:#263238;stroke-linejoin:round;stroke-width:0.5px"></polygon><polygon points="213.58 255.7 215.25 256.23 218.86 254.89 217.24 254.37 213.58 255.7" style="fill:#fff;stroke:#263238;stroke-linejoin:round;stroke-width:0.5px"></polygon><polygon points="210.29 254.64 212.02 255.2 215.69 253.87 213.98 253.32 210.29 254.64" style="fill:#fff;stroke:#263238;stroke-linejoin:round;stroke-width:0.5px"></polygon><polygon points="210.49 255.75 208.55 255.13 205.75 255.9 208.01 256.65 210.49 255.75" style="fill:#fff;stroke:#263238;stroke-linejoin:round;stroke-width:0.5px"></polygon><polygon points="224.04 255.5 229.32 253.37 227.36 252.8 221.92 254.82 224.04 255.5" style="fill:#fff;stroke:#263238;stroke-linejoin:round;stroke-width:0.5px"></polygon><polygon points="217.7 258.07 215.27 257.29 212.75 258.23 215.25 259.06 217.7 258.07" style="fill:#fff;stroke:#263238;stroke-linejoin:round;stroke-width:0.5px"></polygon><polygon points="206.25 259.57 209.74 258.28 208.02 257.71 204.5 258.98 206.25 259.57" style="fill:#fff;stroke:#263238;stroke-linejoin:round;stroke-width:0.5px"></polygon><polygon points="222.59 256.09 220.4 255.39 216.79 256.73 219.14 257.49 222.59 256.09" style="fill:#fff;stroke:#263238;stroke-linejoin:round;stroke-width:0.5px"></polygon><polygon points="209.54 257.16 211.23 257.73 213.73 256.8 212.04 256.25 209.54 257.16" style="fill:#fff;stroke:#263238;stroke-linejoin:round;stroke-width:0.5px"></polygon><polygon points="206.49 257.2 204.02 256.38 200.03 257.47 202.99 258.47 206.49 257.2" style="fill:#fff;stroke:#263238;stroke-linejoin:round;stroke-width:0.5px"></polygon><polygon points="219.9 261.67 216.65 263.09 218 263.54 221.54 262.22 219.9 261.67" style="fill:#fff;stroke:#263238;stroke-linejoin:round;stroke-width:0.5px"></polygon><polygon points="230.87 253.82 225.52 255.98 228.34 256.89 233.57 254.6 230.87 253.82" style="fill:#fff;stroke:#263238;stroke-linejoin:round;stroke-width:0.5px"></polygon><polygon points="217.22 253.31 222.52 251.4 220.78 250.89 215.53 252.77 217.22 253.31" style="fill:#fff;stroke:#263238;stroke-linejoin:round;stroke-width:0.5px"></polygon><polygon points="229.78 257.35 232.34 258.17 238.24 255.95 235.07 255.04 229.78 257.35" style="fill:#fff;stroke:#263238;stroke-linejoin:round;stroke-width:0.5px"></polygon><polygon points="218.48 261.2 215.28 260.13 211.92 261.49 215.24 262.61 218.48 261.2" style="fill:#fff;stroke:#263238;stroke-linejoin:round;stroke-width:0.5px"></polygon><polygon points="222.27 259.54 219.18 258.55 216.71 259.55 219.85 260.6 222.27 259.54" style="fill:#fff;stroke:#263238;stroke-linejoin:round;stroke-width:0.5px"></polygon><polygon points="211.25 258.79 207.76 260.08 210.47 261 213.82 259.64 211.25 258.79" style="fill:#fff;stroke:#263238;stroke-linejoin:round;stroke-width:0.5px"></polygon><polygon points="225.72 260.65 223.71 260 221.27 261.07 223.03 261.66 225.72 260.65" style="fill:#fff;stroke:#263238;stroke-linejoin:round;stroke-width:0.5px"></polygon><polygon points="225.09 259.4 227.23 260.08 230.83 258.73 228.4 257.95 225.09 259.4" style="fill:#fff;stroke:#263238;stroke-linejoin:round;stroke-width:0.5px"></polygon><polygon points="216.84 265.64 201.39 230.24 176.93 226.54 190.59 257.05 216.84 265.64" style="fill:#fff;stroke:#263238;stroke-linejoin:round"></polygon><path d="M262.11,188.67s-3.06,7.83-2.49,14.13,5.92,19.67,6.69,23.49a11.36,11.36,0,0,1-.19,6.11s-1-1.15-1.72.95-3.06,7.83-3.06,7.83l-1.91,1,7.83,14.7,2.48,4.2s5.73-2.86,7.83-4.77,7.64-3.44,9.93-6.3.77-2.87,2.49-7.07,2.67-13.75,1.52-16.61-2.29-3.63-2.29-6.5,2.68-7.82.58-15.46-3.63-19.67-7.07-22.92-6.3-2.67-8.21-2.67" style="fill:gray;stroke:#263238;stroke-linecap:round;stroke-linejoin:round"></path><path d="M278.12,243.31a12.75,12.75,0,0,0,2.51,1.5" style="fill:none;stroke:#263238;stroke-miterlimit:10"></path><path d="M267.83,235.45s4.48,3.61,8.19,6.35" style="fill:none;stroke:#263238;stroke-miterlimit:10"></path><path d="M272.23,235.64s11.65,3.44,11.07,4.59-5.53-1.15-6.49-1.53" style="fill:none;stroke:#263238;stroke-miterlimit:10"></path><path d="M252.75,248.63s-17.95,10.31-19.29,10.31-5.54-3.05-6.87-2.67a54.78,54.78,0,0,0-5.16,2.29c-1.72.76-5-.19-5.16,1.15s1.34,2.29,1.34,2.29-3.82.76-4.58.76-1.72,1.53,0,2.87,4.77,1.52,5.34,1.72,3.82,1.91,6.5,1.91,8.21-2.87,11.84-3.82,22.34-6.12,22.34-6.12S255.61,248.63,252.75,248.63Z" style="fill:#a8a8a8;stroke:#263238;stroke-miterlimit:10"></path><path d="M217.61,262a16.23,16.23,0,0,0,6.88-.19" style="fill:#fff;stroke:#263238;stroke-miterlimit:10"></path><path d="M261.72,240s5.92,9.16,9.36,15.27,2.29,6.5,1.34,7.45-8,2.1-10.31,2.48a3.76,3.76,0,0,1-4.59-3.43c0-2.29-2.86-8.21-4-10.31s-2.86-1.72-2.86-3.44,3.82-4,5.54-5.54S260.39,239.85,261.72,240Z" style="fill:gray;stroke:#263238;stroke-linecap:round;stroke-linejoin:round"></path><path d="M218.29,233.62s5.31,2.41,7.08,3.54,4.51,2.25,4.34,3.54-3.54,5.31-5,5.63-4.51-1.93-6.44-1.93-3.7-5.15-3.06-6.92S217,233.78,218.29,233.62Z" style="fill:#a8a8a8;stroke:#263238;stroke-linejoin:round"></path><path d="M211.37,240.54s-1.61,1.45-1.61,2.73.81,5.15,1.77,6,1.45-.32,1.45-1.29-1.45-1.77-.81-3.06,1.45-3.38,1.45-3.38S212.66,239.9,211.37,240.54Z" style="fill:#a8a8a8;stroke:#263238;stroke-linejoin:round"></path><path d="M214.59,238.45a3.52,3.52,0,0,0-3.22,1.28c-1.13,1.61-.16,3.38.8,5.15a5,5,0,0,0,3.87,2.58c1.28.16,1.93-.32.8-1.77a16.74,16.74,0,0,1-2.09-4.51A18.62,18.62,0,0,1,214.59,238.45Z" style="fill:#a8a8a8;stroke:#263238;stroke-linejoin:round"></path><path d="M216.84,234.42s-3.06,1.77-3.06,3.22a21.43,21.43,0,0,0,1.45,6.6c.81,1.77,3.22,4,3.54,3.22s-.32-2.9-.64-4.51-.81-7.56-.81-7.56A.6.6,0,0,0,216.84,234.42Z" style="fill:#a8a8a8;stroke:#263238;stroke-linejoin:round"></path><path d="M220.38,235.87s-1.45-2.73-3.22-2.73-.64,1.93-.48,5.63,1,7.4,2.09,8.69,1.77.32,1.45-1.93-.48-5.63-.48-6.12v-1.12" style="fill:#a8a8a8;stroke:#263238;stroke-linejoin:round"></path><path d="M224.89,240.54a7.68,7.68,0,0,1-1.29,3.22c-1,1.12-2.09,3.05-1.29,3.54s1.61,0,2.42-1,2.89-2.73,3.86-4.5a2.7,2.7,0,0,0-1.45-3.87,15.25,15.25,0,0,0-1.93-.16" style="fill:#a8a8a8;stroke:#263238;stroke-linejoin:round"></path><path d="M262.63,366.5s10.48,13.24,20.55,13.24,19.31-1.68,26-1.68,23.51-2.52,28.55-5,2.52-5-1.68-7.55-25.19-12.6-25.19-12.6Z" style="fill:#263238;stroke:#263238;stroke-linejoin:round"></path><path d="M256.42,309.06a255.14,255.14,0,0,1-14.63,21.07c-8,10.2-12.2,12.2-14,16.85s-.89,9.1.66,10.21,17.3,4.21,21.29,4.43a42.47,42.47,0,0,0,8.65-.66l.44-2s-7.09.22-8.87,0-8.87-5.32-11.31-6.88-3.55-2.21-3.55-2.21a204.54,204.54,0,0,1,13.53-15.75,105.76,105.76,0,0,0,12.42-16S259.75,306.84,256.42,309.06Z" style="fill:#a8a8a8;stroke:#263238;stroke-miterlimit:10"></path><path d="M235.13,349.87s-2.88,4-2.88,5.54" style="fill:#fff;stroke:#263238;stroke-linejoin:round"></path><path d="M291.91,286.66s-20.18,4-24.84,4.88-6.65,2.22-9.09,7.76-3.77,7.76-2.66,13.09,1.55,24.39,1.55,32.6-1.78,13.75-.45,16.41,5.1,4.21,6.21,5.1,10,4,12.64,4.66,6.44,3.55,9.76,3.55,10.87-2.67,16-4.88,12.64-1.78,16.41-3.55,5.55-3.11,4.66-7.76-4.44-7.77-5.1-13.09-.22-13.3-1.33-17.3-3.77-8.65-4.44-15.52.45-16-2-19.3-1.56-2.66-5.77-4.21S295.68,284.67,291.91,286.66Z" style="fill:#a8a8a8;stroke:#263238;stroke-miterlimit:10"></path><path d="M286.81,296.64c10-2.22,12.42-3.1,16-4.88s5.11.22,5.11.22l.25-.15c-1.21-1.67-1.26-1.47-4.69-2.73-4.21-1.55-7.76-4.43-11.53-2.44,0,0-20.18,4-24.84,4.88s-6.65,2.22-9.09,7.76-3.77,7.76-2.66,13.09,1.55,24.39,1.55,32.6-1.78,13.75-.45,16.41,5.1,4.21,6.21,5.1a30.32,30.32,0,0,0,5,2.13.51.51,0,0,0-.09-.58c-1.55-1.77.67-8.87,2-18.4s.89-25.07-.44-29.5-4-9.54-2.22-14.42S276.83,298.86,286.81,296.64Z" style="fill:#fff;stroke:#263238;stroke-miterlimit:10"></path><path d="M276.16,332.13s-.89,25.5-1.55,31-1.55,6.43-.89,7.54,7.54,3.77,10,3.77,3.33.23,3.55-2.66-2-23.51-1.77-28.38,1.55-9.76-1.11-11.31S278.82,326.8,276.16,332.13Z" style="fill:#fff;stroke:#263238;stroke-miterlimit:10"></path><path d="M308.71,318.15s-13.08,4.44-21.29,7.1-11.09,2.44-11.53,5.1,0,2.66,1.11,3.11a9.14,9.14,0,0,1,4.43,5.54c1.11,3.33,2.22,6,3.77,6s24.4-3.55,28.17-5.1,5.32-2,4.88-4.44-.67-6.65-1.56-11.75S312.26,316.82,308.71,318.15Z" style="fill:#fff;stroke:#263238;stroke-linejoin:round"></path><polygon points="290.36 339.22 292.35 355.86 295.68 354.75 293.25 338.36 290.36 339.22" style="fill:#263238;stroke:#263238;stroke-linejoin:round"></polygon><polygon points="310.6 335.39 313.64 350.98 316.52 350.09 313.64 334.34 310.6 335.39" style="fill:#263238;stroke:#263238;stroke-linejoin:round"></polygon><path d="M274.17,308.17s7.31-1.55,16.19-3.77,17.07-4.88,17.07-4.88V302s-10,3.11-15.3,4.22-10.42,1.77-11.31,2-3.55.89-4.88,1.33l-1.33.45Z" style="fill:#fff;stroke:#263238;stroke-linejoin:round"></path></g></svg>